<mxfile host="65bd71144e">
    <diagram id="k9W-WrWEEHzkOz8PR5Kv" name="Page-1">
        <mxGraphModel dx="1132" dy="1510" grid="1" gridSize="10" guides="1" tooltips="1" connect="1" arrows="1" fold="1" page="1" pageScale="1" pageWidth="850" pageHeight="1100" math="0" shadow="0">
            <root>
                <mxCell id="0"/>
                <mxCell id="1" parent="0"/>
                <mxCell id="2" value="Population" style="ellipse;whiteSpace=wrap;html=1;strokeColor=#000000;fontSize=30;fillColor=#008a00;fontColor=#ffffff;" vertex="1" parent="1">
                    <mxGeometry x="80" y="60" width="500" height="190" as="geometry"/>
                </mxCell>
                <mxCell id="3" value="Sample" style="ellipse;whiteSpace=wrap;html=1;fontSize=30;strokeColor=#000000;fillColor=#60a917;fontColor=#ffffff;" vertex="1" parent="1">
                    <mxGeometry x="110" y="140" width="130" height="60" as="geometry"/>
                </mxCell>
            </root>
        </mxGraphModel>
    </diagram>
</mxfile>